<?xml version="1.0" encoding="UTF-8"?>
<svg id="svg1" xmlns="http://www.w3.org/2000/svg" version="1.1" xmlns:inkscape="http://www.inkscape.org/namespaces/inkscape" xmlns:sodipodi="http://sodipodi.sourceforge.net/DTD/sodipodi-0.dtd" xmlns:svg="http://www.w3.org/2000/svg" xmlns:xlink="http://www.w3.org/1999/xlink" viewBox="0 0 135.68 129.05">
  <!-- Generator: Adobe Illustrator 30.1.0, SVG Export Plug-In . SVG Version: 2.1.1 Build 136)  -->
  <defs>
    <style>
      .st0 {
        fill: url(#_未命名的渐变_6);
      }
    </style>
    <radialGradient id="_未命名的渐变_6" data-name="未命名的渐变 6" cx="-148.11" cy="865.54" fx="-148.11" fy="865.54" r="1" gradientTransform="translate(9944.93 -57656.83) scale(66.69)" gradientUnits="userSpaceOnUse">
      <stop offset="0" stop-color="#7fcc28"/>
      <stop offset="1" stop-color="#007a38"/>
    </radialGradient>
  </defs>
  <sodipodi:namedview id="namedview1" bordercolor="#000000" borderopacity="0.25" inkscape:deskcolor="#d1d1d1" inkscape:pagecheckerboard="0" inkscape:pageopacity="0.0" inkscape:showpageshadow="2" pagecolor="#ffffff">
    <inkscape:page id="page1" x="0" y="0" width="2418.8933" height="1145.196" bleed="0" inkscape:label="1" margin="282.508 568.20001 282.50665 568.19733"/>
  </sodipodi:namedview>
  <g id="layer-MC0" inkscape:groupmode="layer" inkscape:label="鍥惧眰 1">
    <path id="path25" class="st0" d="M73.09,10.03c-7.35,11.13-3.35,29.96-2.27,48.98h0c15.99-9.33,31.52-18.46,38.75-32.5h0c2.46-5.51,1.97-13.63-3.6-15.98h0c-2.97-2.63-8.27-2.24-13.45,3.47h0c2.35-8.15,2.07-10.81-3.63-13.33h0c-1.14-.44-2.33-.67-3.77-.67h0c-4.77,0-10.25,3.36-12.02,10.03M44.35,2.62c-1.49,0-2.86.45-4.23,1.28h0c-5.44,3.07-5.07,8.58-1.95,13.68h0c-8.54-4.7-11.24-4.7-16.54-1.7h0c-2.46,2.86-4.67,11.18,1.14,16.3h0c8.96,12.96,25.88,20,42.59,27.19h0c-1.14-19.02.51-35.37-8.48-48.4h0c-4.31-5.66-8.47-8.36-12.37-8.36h-.15ZM118.78,39.4c-13.74.95-29.38,12.96-44.92,24.76h0c17.12,9.66,33.76,16.65,47.5,15.93h0c5.93-.42,11.78-2.22,14.33-5.22h0v-7.78c-2.17-2.86-6.67-4.49-12.82-5.98h0c7.15-3.06,12.03-5.86,12.82-10.17h0v-2.46c-1-4.87-8.4-9.09-15.59-9.13h0c-.57,0-.95.05-1.31.05M15.77,48.91C7.52,49.52-.38,52.76.01,58.05H.01c.37,5.5,5.82,7.78,14.22,10.07h0c-8.03,3.22-13.33,6.07-12.95,11.58h0c.39,5.5,8.8,10.25,17.12,9.89h0c13.42-.95,29.06-12.96,44.6-24.73h0c-15.75-9.24-31.68-16-44.73-16h0c-.19,0-.37-.01-.55-.01h0c-.7,0-1.31.06-1.95.06M80.11,118.07c5.89,7.81,11.61,10.03,16.92,7.04h0c5.3-3.05,4.94-8.4,1.68-13.69h0c8.53,4.9,11.25,4.76,16.53,1.69h0c2.74-2.83,4.79-11.19-1.17-16.31h0c-8.91-12.95-25.62-19.97-42.53-27.16h0c1.17,19-.2,35.51,8.57,48.43M27.32,102.51c-2.24,5.66-1.95,13.68,3.87,15.94h0c2.86,2.67,8.26,2.31,13.44-3.43h0c-2.35,8.15-2.06,10.87,3.41,13.31h0c5.66,2.32,13.71-.94,15.72-9.16h0c7.66-11.34,3.69-30.16,2.35-49.16h0c-15.75,9.31-31.57,18.42-38.79,32.5"/>
  </g>
</svg>